<svg height="480pt" viewBox="0 -20 480 479" width="480pt" xmlns="http://www.w3.org/2000/svg"><g fill="#9bc9ff"><path d="m440 24.484375c0-4.738281-2.101562-9.230469-5.738281-12.269531-3.632813-3.039063-8.429688-4.3125-13.09375-3.472656l-397.167969 71.335937h416zm0 0"/><path d="m456 80.078125h-432c-8.835938 0-16 7.164063-16 16v320c0 8.835937 7.164062 16 16 16h432c8.835938 0 16-7.164063 16-16v-112h-144c-8.835938 0-16-7.164063-16-16v-64c0-8.835937 7.164062-16 16-16h144v-112c0-8.835937-7.164062-16-16-16zm0 0"/><path d="m376 256.078125c0 8.835937-7.164062 16-16 16s-16-7.164063-16-16 7.164062-16 16-16 16 7.164063 16 16zm0 0"/></g><path d="m456 72.078125h-8v-47.59375c-.003906-7.101563-3.15625-13.839844-8.605469-18.398437-5.453125-4.554688-12.640625-6.464844-19.632812-5.207032l-397.175781 71.328125h-.058594c-12.625.773438-22.4843752 11.21875-22.527344 23.871094v320c0 13.253906 10.746094 24 24 24h432c13.253906 0 24-10.746094 24-24v-320c0-13.253906-10.746094-24-24-24zm-33.414062-55.464844c2.328124-.417969 4.726562.214844 6.546874 1.734375 1.816407 1.523438 2.867188 3.769532 2.867188 6.136719v47.59375h-318.207031zm33.414062 407.464844h-432c-4.417969 0-8-3.582031-8-8v-320c0-4.417969 3.582031-8 8-8h432c4.417969 0 8 3.582031 8 8v104h-136c-13.253906 0-24 10.746094-24 24v64c0 13.253906 10.746094 24 24 24h136v104c0 4.417969-3.582031 8-8 8zm8-128h-136c-4.417969 0-8-3.582031-8-8v-64c0-4.417969 3.582031-8 8-8h136zm0 0" fill="#1e81ce"/><path d="m360 280.078125c-13.253906 0-24-10.746094-24-24s10.746094-24 24-24 24 10.746094 24 24-10.746094 24-24 24zm0-32c-4.417969 0-8 3.582031-8 8s3.582031 8 8 8 8-3.582031 8-8-3.582031-8-8-8zm0 0" fill="#1e81ce"/></svg>